<mxfile host="65bd71144e">
    <diagram id="xJzm0lC5wHLiliQopqIK" name="第 1 页">
        <mxGraphModel dx="991" dy="645" grid="1" gridSize="10" guides="1" tooltips="1" connect="1" arrows="1" fold="1" page="1" pageScale="1" pageWidth="827" pageHeight="1169" math="0" shadow="0">
            <root>
                <mxCell id="0"/>
                <mxCell id="1" parent="0"/>
                <mxCell id="GtfeOrSFovPK5ZYkdQ4u-160" value="&lt;font style=&quot;font-size: 20px;&quot; face=&quot;Times New Roman&quot;&gt;(f) &lt;/font&gt;&lt;font face=&quot;SimSun&quot; style=&quot;font-size: 20px;&quot;&gt;第五步&lt;/font&gt;" style="text;html=1;align=center;verticalAlign=middle;resizable=0;points=[];autosize=1;strokeColor=none;fillColor=none;strokeWidth=0.5;" parent="1" vertex="1">
                    <mxGeometry x="340" y="880" width="110" height="40" as="geometry"/>
                </mxCell>
                <mxCell id="GtfeOrSFovPK5ZYkdQ4u-166" value="&lt;font face=&quot;Times New Roman&quot;&gt;&lt;span style=&quot;font-size: 20px;&quot;&gt;S: {A,B,C,D,E}&lt;/span&gt;&lt;/font&gt;" style="text;html=1;align=center;verticalAlign=middle;resizable=0;points=[];autosize=1;strokeColor=none;fillColor=none;strokeWidth=0.5;" parent="1" vertex="1">
                    <mxGeometry x="550" y="820" width="150" height="40" as="geometry"/>
                </mxCell>
                <mxCell id="gOH0j5LnowQiTqJbI5KU-8" value="" style="group;strokeWidth=0.5;" parent="1" vertex="1" connectable="0">
                    <mxGeometry x="160" y="30" width="520" height="850" as="geometry"/>
                </mxCell>
                <mxCell id="gOH0j5LnowQiTqJbI5KU-5" value="" style="group;strokeWidth=0.5;" parent="gOH0j5LnowQiTqJbI5KU-8" vertex="1" connectable="0">
                    <mxGeometry x="131.5" y="11" width="207" height="236" as="geometry"/>
                </mxCell>
                <mxCell id="GtfeOrSFovPK5ZYkdQ4u-12" value="&lt;font style=&quot;font-size: 20px;&quot; face=&quot;Times New Roman&quot;&gt;A&lt;/font&gt;" style="ellipse;whiteSpace=wrap;html=1;aspect=fixed;strokeWidth=0.5;" parent="gOH0j5LnowQiTqJbI5KU-5" vertex="1">
                    <mxGeometry x="3" width="40" height="40" as="geometry"/>
                </mxCell>
                <mxCell id="GtfeOrSFovPK5ZYkdQ4u-13" value="&lt;font style=&quot;font-size: 20px;&quot; face=&quot;Times New Roman&quot;&gt;C&lt;/font&gt;" style="ellipse;whiteSpace=wrap;html=1;aspect=fixed;strokeWidth=0.5;" parent="gOH0j5LnowQiTqJbI5KU-5" vertex="1">
                    <mxGeometry x="83" y="80" width="40" height="40" as="geometry"/>
                </mxCell>
                <mxCell id="GtfeOrSFovPK5ZYkdQ4u-15" value="&lt;font style=&quot;font-size: 20px;&quot; face=&quot;Times New Roman&quot;&gt;B&lt;/font&gt;" style="ellipse;whiteSpace=wrap;html=1;aspect=fixed;strokeWidth=0.5;" parent="gOH0j5LnowQiTqJbI5KU-5" vertex="1">
                    <mxGeometry x="163" width="40" height="40" as="geometry"/>
                </mxCell>
                <mxCell id="GtfeOrSFovPK5ZYkdQ4u-16" value="&lt;font style=&quot;font-size: 20px;&quot; face=&quot;Times New Roman&quot;&gt;D&lt;/font&gt;" style="ellipse;whiteSpace=wrap;html=1;aspect=fixed;strokeWidth=0.5;" parent="gOH0j5LnowQiTqJbI5KU-5" vertex="1">
                    <mxGeometry x="2" y="160" width="40" height="40" as="geometry"/>
                </mxCell>
                <mxCell id="GtfeOrSFovPK5ZYkdQ4u-17" value="&lt;font style=&quot;font-size: 20px;&quot; face=&quot;Times New Roman&quot;&gt;E&lt;/font&gt;" style="ellipse;whiteSpace=wrap;html=1;aspect=fixed;strokeWidth=0.5;" parent="gOH0j5LnowQiTqJbI5KU-5" vertex="1">
                    <mxGeometry x="163" y="160" width="40" height="40" as="geometry"/>
                </mxCell>
                <mxCell id="GtfeOrSFovPK5ZYkdQ4u-19" value="" style="endArrow=classic;html=1;rounded=0;strokeWidth=0.5;" parent="gOH0j5LnowQiTqJbI5KU-5" source="GtfeOrSFovPK5ZYkdQ4u-12" target="GtfeOrSFovPK5ZYkdQ4u-13" edge="1">
                    <mxGeometry width="50" height="50" relative="1" as="geometry">
                        <mxPoint x="103" y="130" as="sourcePoint"/>
                        <mxPoint x="153" y="80" as="targetPoint"/>
                    </mxGeometry>
                </mxCell>
                <mxCell id="GtfeOrSFovPK5ZYkdQ4u-21" value="" style="endArrow=classic;html=1;rounded=0;strokeWidth=0.5;" parent="gOH0j5LnowQiTqJbI5KU-5" source="GtfeOrSFovPK5ZYkdQ4u-13" target="GtfeOrSFovPK5ZYkdQ4u-17" edge="1">
                    <mxGeometry width="50" height="50" relative="1" as="geometry">
                        <mxPoint x="103" y="130" as="sourcePoint"/>
                        <mxPoint x="153" y="80" as="targetPoint"/>
                    </mxGeometry>
                </mxCell>
                <mxCell id="GtfeOrSFovPK5ZYkdQ4u-22" value="" style="endArrow=classic;html=1;rounded=0;strokeWidth=0.5;" parent="gOH0j5LnowQiTqJbI5KU-5" source="GtfeOrSFovPK5ZYkdQ4u-12" target="GtfeOrSFovPK5ZYkdQ4u-16" edge="1">
                    <mxGeometry width="50" height="50" relative="1" as="geometry">
                        <mxPoint x="103" y="130" as="sourcePoint"/>
                        <mxPoint x="153" y="80" as="targetPoint"/>
                    </mxGeometry>
                </mxCell>
                <mxCell id="GtfeOrSFovPK5ZYkdQ4u-23" value="" style="endArrow=classic;html=1;rounded=0;strokeWidth=0.5;" parent="gOH0j5LnowQiTqJbI5KU-5" source="GtfeOrSFovPK5ZYkdQ4u-13" target="GtfeOrSFovPK5ZYkdQ4u-16" edge="1">
                    <mxGeometry width="50" height="50" relative="1" as="geometry">
                        <mxPoint x="103" y="130" as="sourcePoint"/>
                        <mxPoint x="153" y="80" as="targetPoint"/>
                    </mxGeometry>
                </mxCell>
                <mxCell id="GtfeOrSFovPK5ZYkdQ4u-24" value="" style="endArrow=classic;html=1;rounded=0;strokeWidth=0.5;" parent="gOH0j5LnowQiTqJbI5KU-5" source="GtfeOrSFovPK5ZYkdQ4u-16" target="GtfeOrSFovPK5ZYkdQ4u-17" edge="1">
                    <mxGeometry width="50" height="50" relative="1" as="geometry">
                        <mxPoint x="103" y="130" as="sourcePoint"/>
                        <mxPoint x="153" y="80" as="targetPoint"/>
                    </mxGeometry>
                </mxCell>
                <mxCell id="GtfeOrSFovPK5ZYkdQ4u-25" value="" style="endArrow=classic;html=1;rounded=0;strokeWidth=0.5;" parent="gOH0j5LnowQiTqJbI5KU-5" source="GtfeOrSFovPK5ZYkdQ4u-17" target="GtfeOrSFovPK5ZYkdQ4u-15" edge="1">
                    <mxGeometry width="50" height="50" relative="1" as="geometry">
                        <mxPoint x="103" y="130" as="sourcePoint"/>
                        <mxPoint x="153" y="80" as="targetPoint"/>
                    </mxGeometry>
                </mxCell>
                <mxCell id="GtfeOrSFovPK5ZYkdQ4u-26" value="" style="endArrow=classic;html=1;rounded=0;strokeWidth=0.5;" parent="gOH0j5LnowQiTqJbI5KU-5" source="GtfeOrSFovPK5ZYkdQ4u-12" target="GtfeOrSFovPK5ZYkdQ4u-15" edge="1">
                    <mxGeometry width="50" height="50" relative="1" as="geometry">
                        <mxPoint x="103" y="130" as="sourcePoint"/>
                        <mxPoint x="153" y="80" as="targetPoint"/>
                    </mxGeometry>
                </mxCell>
                <mxCell id="GtfeOrSFovPK5ZYkdQ4u-28" value="" style="endArrow=classic;html=1;rounded=0;strokeWidth=0.5;" parent="gOH0j5LnowQiTqJbI5KU-5" edge="1">
                    <mxGeometry width="50" height="50" relative="1" as="geometry">
                        <mxPoint x="164.85786437626905" y="31.14213562373095" as="sourcePoint"/>
                        <mxPoint x="113.14213562373095" y="82.85786437626905" as="targetPoint"/>
                    </mxGeometry>
                </mxCell>
                <mxCell id="GtfeOrSFovPK5ZYkdQ4u-29" value="" style="endArrow=classic;html=1;rounded=0;strokeWidth=0.5;" parent="gOH0j5LnowQiTqJbI5KU-5" edge="1">
                    <mxGeometry width="50" height="50" relative="1" as="geometry">
                        <mxPoint x="120.14213562373095" y="88.85786437626905" as="sourcePoint"/>
                        <mxPoint x="171.85786437626905" y="37.14213562373095" as="targetPoint"/>
                    </mxGeometry>
                </mxCell>
                <mxCell id="GtfeOrSFovPK5ZYkdQ4u-31" value="&lt;font style=&quot;font-size: 20px;&quot; face=&quot;Times New Roman&quot;&gt;1&lt;/font&gt;" style="text;html=1;align=center;verticalAlign=middle;resizable=0;points=[];autosize=1;strokeColor=none;fillColor=none;strokeWidth=0.5;" parent="gOH0j5LnowQiTqJbI5KU-5" vertex="1">
                    <mxGeometry x="137" y="50" width="30" height="40" as="geometry"/>
                </mxCell>
                <mxCell id="GtfeOrSFovPK5ZYkdQ4u-33" value="&lt;font style=&quot;font-size: 20px;&quot; face=&quot;Times New Roman&quot;&gt;1&lt;/font&gt;" style="text;html=1;align=center;verticalAlign=middle;resizable=0;points=[];autosize=1;strokeColor=none;fillColor=none;strokeWidth=0.5;" parent="gOH0j5LnowQiTqJbI5KU-5" vertex="1">
                    <mxGeometry x="177" y="79" width="30" height="40" as="geometry"/>
                </mxCell>
                <mxCell id="GtfeOrSFovPK5ZYkdQ4u-34" value="&lt;font style=&quot;font-size: 20px;&quot; face=&quot;Times New Roman&quot;&gt;1&lt;/font&gt;" style="text;html=1;align=center;verticalAlign=middle;resizable=0;points=[];autosize=1;strokeColor=none;fillColor=none;strokeWidth=0.5;" parent="gOH0j5LnowQiTqJbI5KU-5" vertex="1">
                    <mxGeometry x="129" y="110" width="30" height="40" as="geometry"/>
                </mxCell>
                <mxCell id="GtfeOrSFovPK5ZYkdQ4u-35" value="&lt;font style=&quot;font-size: 20px;&quot; face=&quot;Times New Roman&quot;&gt;2&lt;/font&gt;" style="text;html=1;align=center;verticalAlign=middle;resizable=0;points=[];autosize=1;strokeColor=none;fillColor=none;strokeWidth=0.5;" parent="gOH0j5LnowQiTqJbI5KU-5" vertex="1">
                    <mxGeometry x="115" y="31" width="30" height="40" as="geometry"/>
                </mxCell>
                <mxCell id="GtfeOrSFovPK5ZYkdQ4u-36" value="&lt;font style=&quot;font-size: 20px;&quot; face=&quot;Times New Roman&quot;&gt;1&lt;/font&gt;" style="text;html=1;align=center;verticalAlign=middle;resizable=0;points=[];autosize=1;strokeColor=none;fillColor=none;strokeWidth=0.5;" parent="gOH0j5LnowQiTqJbI5KU-5" vertex="1">
                    <mxGeometry x="53" y="31" width="30" height="40" as="geometry"/>
                </mxCell>
                <mxCell id="GtfeOrSFovPK5ZYkdQ4u-38" value="&lt;font style=&quot;font-size: 20px;&quot; face=&quot;Times New Roman&quot;&gt;1&lt;/font&gt;" style="text;html=1;align=center;verticalAlign=middle;resizable=0;points=[];autosize=1;strokeColor=none;fillColor=none;strokeWidth=0.5;" parent="gOH0j5LnowQiTqJbI5KU-5" vertex="1">
                    <mxGeometry y="80" width="30" height="40" as="geometry"/>
                </mxCell>
                <mxCell id="GtfeOrSFovPK5ZYkdQ4u-39" value="&lt;font style=&quot;font-size: 20px;&quot; face=&quot;Times New Roman&quot;&gt;2&lt;/font&gt;" style="text;html=1;align=center;verticalAlign=middle;resizable=0;points=[];autosize=1;strokeColor=none;fillColor=none;strokeWidth=0.5;" parent="gOH0j5LnowQiTqJbI5KU-5" vertex="1">
                    <mxGeometry x="43" y="110" width="30" height="40" as="geometry"/>
                </mxCell>
                <mxCell id="GtfeOrSFovPK5ZYkdQ4u-40" value="&lt;font style=&quot;font-size: 20px;&quot; face=&quot;Times New Roman&quot;&gt;1&lt;/font&gt;" style="text;html=1;align=center;verticalAlign=middle;resizable=0;points=[];autosize=1;strokeColor=none;fillColor=none;strokeWidth=0.5;" parent="gOH0j5LnowQiTqJbI5KU-5" vertex="1">
                    <mxGeometry x="88" y="150" width="30" height="40" as="geometry"/>
                </mxCell>
                <mxCell id="GtfeOrSFovPK5ZYkdQ4u-41" value="&lt;font style=&quot;font-size: 20px;&quot; face=&quot;Times New Roman&quot;&gt;(a) &lt;/font&gt;&lt;font face=&quot;SimSun&quot; style=&quot;font-size: 20px;&quot;&gt;图&lt;/font&gt;" style="text;html=1;align=center;verticalAlign=middle;resizable=0;points=[];autosize=1;strokeColor=none;fillColor=none;strokeWidth=0.5;" parent="gOH0j5LnowQiTqJbI5KU-5" vertex="1">
                    <mxGeometry x="68" y="196" width="70" height="40" as="geometry"/>
                </mxCell>
                <mxCell id="GtfeOrSFovPK5ZYkdQ4u-37" value="&lt;font style=&quot;font-size: 20px;&quot; face=&quot;Times New Roman&quot;&gt;4&lt;/font&gt;" style="text;html=1;align=center;verticalAlign=middle;resizable=0;points=[];autosize=1;strokeColor=none;fillColor=none;strokeWidth=0.5;" parent="gOH0j5LnowQiTqJbI5KU-5" vertex="1">
                    <mxGeometry x="86" y="-9" width="30" height="40" as="geometry"/>
                </mxCell>
                <mxCell id="gOH0j5LnowQiTqJbI5KU-6" value="" style="group;align=center;strokeWidth=0.5;" parent="gOH0j5LnowQiTqJbI5KU-8" vertex="1" connectable="0">
                    <mxGeometry y="250" width="470" height="120" as="geometry"/>
                </mxCell>
                <mxCell id="GtfeOrSFovPK5ZYkdQ4u-58" value="&lt;font style=&quot;font-size: 20px;&quot; face=&quot;Times New Roman&quot;&gt;(&lt;/font&gt;&lt;font style=&quot;font-size: 20px;&quot;&gt;&lt;font style=&quot;&quot;&gt;&lt;font face=&quot;Times New Roman&quot;&gt;b) &lt;/font&gt;&lt;font face=&quot;SimSun&quot;&gt;第一步&lt;/font&gt;&lt;/font&gt;&lt;/font&gt;" style="text;html=1;align=center;verticalAlign=middle;resizable=0;points=[];autosize=1;strokeColor=none;fillColor=none;strokeWidth=0.5;" parent="gOH0j5LnowQiTqJbI5KU-6" vertex="1">
                    <mxGeometry x="180" y="80" width="110" height="40" as="geometry"/>
                </mxCell>
                <mxCell id="GtfeOrSFovPK5ZYkdQ4u-42" value="" style="shape=table;startSize=0;container=1;collapsible=0;childLayout=tableLayout;fontFamily=Times New Roman;fontSize=20;strokeWidth=0.5;shadow=0;" parent="gOH0j5LnowQiTqJbI5KU-6" vertex="1">
                    <mxGeometry width="360" height="80" as="geometry"/>
                </mxCell>
                <mxCell id="GtfeOrSFovPK5ZYkdQ4u-43" value="" style="shape=tableRow;horizontal=0;startSize=0;swimlaneHead=0;swimlaneBody=0;strokeColor=inherit;top=0;left=0;bottom=0;right=0;collapsible=0;dropTarget=0;fillColor=none;points=[[0,0.5],[1,0.5]];portConstraint=eastwest;fontFamily=Times New Roman;fontSize=20;strokeWidth=0.5;shadow=0;" parent="GtfeOrSFovPK5ZYkdQ4u-42" vertex="1">
                    <mxGeometry width="360" height="40" as="geometry"/>
                </mxCell>
                <mxCell id="GtfeOrSFovPK5ZYkdQ4u-44" value="" style="shape=partialRectangle;html=1;whiteSpace=wrap;connectable=0;strokeColor=inherit;overflow=hidden;fillColor=none;top=0;left=0;bottom=0;right=0;pointerEvents=1;fontFamily=Times New Roman;fontSize=20;strokeWidth=0.5;shadow=0;horizontal=1;" parent="GtfeOrSFovPK5ZYkdQ4u-43" vertex="1">
                    <mxGeometry width="60" height="40" as="geometry">
                        <mxRectangle width="60" height="40" as="alternateBounds"/>
                    </mxGeometry>
                </mxCell>
                <mxCell id="GtfeOrSFovPK5ZYkdQ4u-45" value="A" style="shape=partialRectangle;html=1;whiteSpace=wrap;connectable=0;strokeColor=inherit;overflow=hidden;fillColor=none;top=0;left=0;bottom=0;right=0;pointerEvents=1;fontFamily=Times New Roman;fontSize=20;strokeWidth=0.5;shadow=0;" parent="GtfeOrSFovPK5ZYkdQ4u-43" vertex="1">
                    <mxGeometry x="60" width="60" height="40" as="geometry">
                        <mxRectangle width="60" height="40" as="alternateBounds"/>
                    </mxGeometry>
                </mxCell>
                <mxCell id="GtfeOrSFovPK5ZYkdQ4u-46" value="B" style="shape=partialRectangle;html=1;whiteSpace=wrap;connectable=0;strokeColor=inherit;overflow=hidden;fillColor=none;top=0;left=0;bottom=0;right=0;pointerEvents=1;fontFamily=Times New Roman;fontSize=20;strokeWidth=0.5;shadow=0;" parent="GtfeOrSFovPK5ZYkdQ4u-43" vertex="1">
                    <mxGeometry x="120" width="60" height="40" as="geometry">
                        <mxRectangle width="60" height="40" as="alternateBounds"/>
                    </mxGeometry>
                </mxCell>
                <mxCell id="GtfeOrSFovPK5ZYkdQ4u-47" value="C" style="shape=partialRectangle;html=1;whiteSpace=wrap;connectable=0;strokeColor=inherit;overflow=hidden;fillColor=none;top=0;left=0;bottom=0;right=0;pointerEvents=1;fontFamily=Times New Roman;fontSize=20;strokeWidth=0.5;shadow=0;" parent="GtfeOrSFovPK5ZYkdQ4u-43" vertex="1">
                    <mxGeometry x="180" width="60" height="40" as="geometry">
                        <mxRectangle width="60" height="40" as="alternateBounds"/>
                    </mxGeometry>
                </mxCell>
                <mxCell id="GtfeOrSFovPK5ZYkdQ4u-48" value="D" style="shape=partialRectangle;html=1;whiteSpace=wrap;connectable=0;strokeColor=inherit;overflow=hidden;fillColor=none;top=0;left=0;bottom=0;right=0;pointerEvents=1;fontFamily=Times New Roman;fontSize=20;strokeWidth=0.5;shadow=0;" parent="GtfeOrSFovPK5ZYkdQ4u-43" vertex="1">
                    <mxGeometry x="240" width="60" height="40" as="geometry">
                        <mxRectangle width="60" height="40" as="alternateBounds"/>
                    </mxGeometry>
                </mxCell>
                <mxCell id="GtfeOrSFovPK5ZYkdQ4u-55" value="E" style="shape=partialRectangle;html=1;whiteSpace=wrap;connectable=0;strokeColor=inherit;overflow=hidden;fillColor=none;top=0;left=0;bottom=0;right=0;pointerEvents=1;fontFamily=Times New Roman;fontSize=20;strokeWidth=0.5;shadow=0;" parent="GtfeOrSFovPK5ZYkdQ4u-43" vertex="1">
                    <mxGeometry x="300" width="60" height="40" as="geometry">
                        <mxRectangle width="60" height="40" as="alternateBounds"/>
                    </mxGeometry>
                </mxCell>
                <mxCell id="GtfeOrSFovPK5ZYkdQ4u-49" value="" style="shape=tableRow;horizontal=0;startSize=0;swimlaneHead=0;swimlaneBody=0;strokeColor=inherit;top=0;left=0;bottom=0;right=0;collapsible=0;dropTarget=0;fillColor=none;points=[[0,0.5],[1,0.5]];portConstraint=eastwest;fontFamily=Times New Roman;fontSize=20;strokeWidth=0.5;shadow=0;" parent="GtfeOrSFovPK5ZYkdQ4u-42" vertex="1">
                    <mxGeometry y="40" width="360" height="40" as="geometry"/>
                </mxCell>
                <mxCell id="GtfeOrSFovPK5ZYkdQ4u-50" value="dist" style="shape=partialRectangle;html=1;whiteSpace=wrap;connectable=0;strokeColor=inherit;overflow=hidden;fillColor=none;top=0;left=0;bottom=0;right=0;pointerEvents=1;fontFamily=Times New Roman;fontSize=20;strokeWidth=0.5;shadow=0;" parent="GtfeOrSFovPK5ZYkdQ4u-49" vertex="1">
                    <mxGeometry width="60" height="40" as="geometry">
                        <mxRectangle width="60" height="40" as="alternateBounds"/>
                    </mxGeometry>
                </mxCell>
                <mxCell id="GtfeOrSFovPK5ZYkdQ4u-51" value="0" style="shape=partialRectangle;html=1;whiteSpace=wrap;connectable=0;strokeColor=inherit;overflow=hidden;fillColor=none;top=0;left=0;bottom=0;right=0;pointerEvents=1;fontFamily=Times New Roman;fontSize=20;strokeWidth=0.5;shadow=0;" parent="GtfeOrSFovPK5ZYkdQ4u-49" vertex="1">
                    <mxGeometry x="60" width="60" height="40" as="geometry">
                        <mxRectangle width="60" height="40" as="alternateBounds"/>
                    </mxGeometry>
                </mxCell>
                <mxCell id="GtfeOrSFovPK5ZYkdQ4u-52" value="4" style="shape=partialRectangle;html=1;whiteSpace=wrap;connectable=0;strokeColor=inherit;overflow=hidden;fillColor=none;top=0;left=0;bottom=0;right=0;pointerEvents=1;fontFamily=Times New Roman;fontSize=20;strokeWidth=0.5;shadow=0;" parent="GtfeOrSFovPK5ZYkdQ4u-49" vertex="1">
                    <mxGeometry x="120" width="60" height="40" as="geometry">
                        <mxRectangle width="60" height="40" as="alternateBounds"/>
                    </mxGeometry>
                </mxCell>
                <mxCell id="GtfeOrSFovPK5ZYkdQ4u-53" value="1" style="shape=partialRectangle;html=1;whiteSpace=wrap;connectable=0;strokeColor=inherit;overflow=hidden;fillColor=none;top=0;left=0;bottom=0;right=0;pointerEvents=1;fontFamily=Times New Roman;fontSize=20;strokeWidth=0.5;shadow=0;" parent="GtfeOrSFovPK5ZYkdQ4u-49" vertex="1">
                    <mxGeometry x="180" width="60" height="40" as="geometry">
                        <mxRectangle width="60" height="40" as="alternateBounds"/>
                    </mxGeometry>
                </mxCell>
                <mxCell id="GtfeOrSFovPK5ZYkdQ4u-54" value="1" style="shape=partialRectangle;html=1;whiteSpace=wrap;connectable=0;strokeColor=inherit;overflow=hidden;fillColor=none;top=0;left=0;bottom=0;right=0;pointerEvents=1;fontFamily=Times New Roman;fontSize=20;strokeWidth=0.5;shadow=0;" parent="GtfeOrSFovPK5ZYkdQ4u-49" vertex="1">
                    <mxGeometry x="240" width="60" height="40" as="geometry">
                        <mxRectangle width="60" height="40" as="alternateBounds"/>
                    </mxGeometry>
                </mxCell>
                <mxCell id="GtfeOrSFovPK5ZYkdQ4u-56" value="∞" style="shape=partialRectangle;html=1;whiteSpace=wrap;connectable=0;strokeColor=inherit;overflow=hidden;fillColor=none;top=0;left=0;bottom=0;right=0;pointerEvents=1;fontFamily=Times New Roman;fontSize=20;strokeWidth=0.5;shadow=0;" parent="GtfeOrSFovPK5ZYkdQ4u-49" vertex="1">
                    <mxGeometry x="300" width="60" height="40" as="geometry">
                        <mxRectangle width="60" height="40" as="alternateBounds"/>
                    </mxGeometry>
                </mxCell>
                <mxCell id="GtfeOrSFovPK5ZYkdQ4u-57" value="" style="endArrow=none;html=1;rounded=0;entryX=0.168;entryY=0.006;entryDx=0;entryDy=0;entryPerimeter=0;strokeWidth=0.5;" parent="GtfeOrSFovPK5ZYkdQ4u-42" target="GtfeOrSFovPK5ZYkdQ4u-49" edge="1">
                    <mxGeometry width="50" height="50" relative="1" as="geometry">
                        <mxPoint as="sourcePoint"/>
                        <mxPoint x="170" y="30" as="targetPoint"/>
                    </mxGeometry>
                </mxCell>
                <mxCell id="GtfeOrSFovPK5ZYkdQ4u-161" value="&lt;font face=&quot;Times New Roman&quot;&gt;&lt;span style=&quot;font-size: 20px;&quot;&gt;S: {A}&lt;/span&gt;&lt;/font&gt;" style="text;html=1;align=center;verticalAlign=middle;resizable=0;points=[];autosize=1;strokeColor=none;fillColor=none;strokeWidth=0.5;" parent="gOH0j5LnowQiTqJbI5KU-6" vertex="1">
                    <mxGeometry x="390" y="20" width="80" height="40" as="geometry"/>
                </mxCell>
                <mxCell id="gOH0j5LnowQiTqJbI5KU-7" value="" style="group;strokeWidth=0.5;" parent="gOH0j5LnowQiTqJbI5KU-8" vertex="1" connectable="0">
                    <mxGeometry y="380" width="490" height="120" as="geometry"/>
                </mxCell>
                <mxCell id="GtfeOrSFovPK5ZYkdQ4u-93" value="" style="shape=table;startSize=0;container=1;collapsible=0;childLayout=tableLayout;fontFamily=Times New Roman;fontSize=20;strokeWidth=0.5;shadow=0;" parent="gOH0j5LnowQiTqJbI5KU-7" vertex="1">
                    <mxGeometry width="360" height="80" as="geometry"/>
                </mxCell>
                <mxCell id="GtfeOrSFovPK5ZYkdQ4u-94" value="" style="shape=tableRow;horizontal=0;startSize=0;swimlaneHead=0;swimlaneBody=0;strokeColor=inherit;top=0;left=0;bottom=0;right=0;collapsible=0;dropTarget=0;fillColor=none;points=[[0,0.5],[1,0.5]];portConstraint=eastwest;fontFamily=Times New Roman;fontSize=20;strokeWidth=0.5;shadow=0;" parent="GtfeOrSFovPK5ZYkdQ4u-93" vertex="1">
                    <mxGeometry width="360" height="40" as="geometry"/>
                </mxCell>
                <mxCell id="GtfeOrSFovPK5ZYkdQ4u-95" value="" style="shape=partialRectangle;html=1;whiteSpace=wrap;connectable=0;strokeColor=inherit;overflow=hidden;fillColor=none;top=0;left=0;bottom=0;right=0;pointerEvents=1;fontFamily=Times New Roman;fontSize=20;strokeWidth=0.5;shadow=0;horizontal=1;" parent="GtfeOrSFovPK5ZYkdQ4u-94" vertex="1">
                    <mxGeometry width="60" height="40" as="geometry">
                        <mxRectangle width="60" height="40" as="alternateBounds"/>
                    </mxGeometry>
                </mxCell>
                <mxCell id="GtfeOrSFovPK5ZYkdQ4u-96" value="A" style="shape=partialRectangle;html=1;whiteSpace=wrap;connectable=0;strokeColor=inherit;overflow=hidden;fillColor=none;top=0;left=0;bottom=0;right=0;pointerEvents=1;fontFamily=Times New Roman;fontSize=20;strokeWidth=0.5;shadow=0;" parent="GtfeOrSFovPK5ZYkdQ4u-94" vertex="1">
                    <mxGeometry x="60" width="60" height="40" as="geometry">
                        <mxRectangle width="60" height="40" as="alternateBounds"/>
                    </mxGeometry>
                </mxCell>
                <mxCell id="GtfeOrSFovPK5ZYkdQ4u-97" value="B" style="shape=partialRectangle;html=1;whiteSpace=wrap;connectable=0;strokeColor=inherit;overflow=hidden;fillColor=none;top=0;left=0;bottom=0;right=0;pointerEvents=1;fontFamily=Times New Roman;fontSize=20;strokeWidth=0.5;shadow=0;" parent="GtfeOrSFovPK5ZYkdQ4u-94" vertex="1">
                    <mxGeometry x="120" width="60" height="40" as="geometry">
                        <mxRectangle width="60" height="40" as="alternateBounds"/>
                    </mxGeometry>
                </mxCell>
                <mxCell id="GtfeOrSFovPK5ZYkdQ4u-98" value="C" style="shape=partialRectangle;html=1;whiteSpace=wrap;connectable=0;strokeColor=inherit;overflow=hidden;fillColor=none;top=0;left=0;bottom=0;right=0;pointerEvents=1;fontFamily=Times New Roman;fontSize=20;strokeWidth=0.5;shadow=0;" parent="GtfeOrSFovPK5ZYkdQ4u-94" vertex="1">
                    <mxGeometry x="180" width="60" height="40" as="geometry">
                        <mxRectangle width="60" height="40" as="alternateBounds"/>
                    </mxGeometry>
                </mxCell>
                <mxCell id="GtfeOrSFovPK5ZYkdQ4u-99" value="D" style="shape=partialRectangle;html=1;whiteSpace=wrap;connectable=0;strokeColor=inherit;overflow=hidden;fillColor=none;top=0;left=0;bottom=0;right=0;pointerEvents=1;fontFamily=Times New Roman;fontSize=20;strokeWidth=0.5;shadow=0;" parent="GtfeOrSFovPK5ZYkdQ4u-94" vertex="1">
                    <mxGeometry x="240" width="60" height="40" as="geometry">
                        <mxRectangle width="60" height="40" as="alternateBounds"/>
                    </mxGeometry>
                </mxCell>
                <mxCell id="GtfeOrSFovPK5ZYkdQ4u-100" value="E" style="shape=partialRectangle;html=1;whiteSpace=wrap;connectable=0;strokeColor=inherit;overflow=hidden;fillColor=none;top=0;left=0;bottom=0;right=0;pointerEvents=1;fontFamily=Times New Roman;fontSize=20;strokeWidth=0.5;shadow=0;" parent="GtfeOrSFovPK5ZYkdQ4u-94" vertex="1">
                    <mxGeometry x="300" width="60" height="40" as="geometry">
                        <mxRectangle width="60" height="40" as="alternateBounds"/>
                    </mxGeometry>
                </mxCell>
                <mxCell id="GtfeOrSFovPK5ZYkdQ4u-101" value="" style="shape=tableRow;horizontal=0;startSize=0;swimlaneHead=0;swimlaneBody=0;strokeColor=inherit;top=0;left=0;bottom=0;right=0;collapsible=0;dropTarget=0;fillColor=none;points=[[0,0.5],[1,0.5]];portConstraint=eastwest;fontFamily=Times New Roman;fontSize=20;strokeWidth=0.5;shadow=0;" parent="GtfeOrSFovPK5ZYkdQ4u-93" vertex="1">
                    <mxGeometry y="40" width="360" height="40" as="geometry"/>
                </mxCell>
                <mxCell id="GtfeOrSFovPK5ZYkdQ4u-102" value="dist" style="shape=partialRectangle;html=1;whiteSpace=wrap;connectable=0;strokeColor=inherit;overflow=hidden;fillColor=none;top=0;left=0;bottom=0;right=0;pointerEvents=1;fontFamily=Times New Roman;fontSize=20;strokeWidth=0.5;shadow=0;" parent="GtfeOrSFovPK5ZYkdQ4u-101" vertex="1">
                    <mxGeometry width="60" height="40" as="geometry">
                        <mxRectangle width="60" height="40" as="alternateBounds"/>
                    </mxGeometry>
                </mxCell>
                <mxCell id="GtfeOrSFovPK5ZYkdQ4u-103" value="0" style="shape=partialRectangle;html=1;whiteSpace=wrap;connectable=0;strokeColor=inherit;overflow=hidden;fillColor=none;top=0;left=0;bottom=0;right=0;pointerEvents=1;fontFamily=Times New Roman;fontSize=20;strokeWidth=0.5;shadow=0;" parent="GtfeOrSFovPK5ZYkdQ4u-101" vertex="1">
                    <mxGeometry x="60" width="60" height="40" as="geometry">
                        <mxRectangle width="60" height="40" as="alternateBounds"/>
                    </mxGeometry>
                </mxCell>
                <mxCell id="GtfeOrSFovPK5ZYkdQ4u-104" value="2" style="shape=partialRectangle;html=1;whiteSpace=wrap;connectable=0;strokeColor=inherit;overflow=hidden;fillColor=none;top=0;left=0;bottom=0;right=0;pointerEvents=1;fontFamily=Times New Roman;fontSize=20;strokeWidth=0.5;shadow=0;" parent="GtfeOrSFovPK5ZYkdQ4u-101" vertex="1">
                    <mxGeometry x="120" width="60" height="40" as="geometry">
                        <mxRectangle width="60" height="40" as="alternateBounds"/>
                    </mxGeometry>
                </mxCell>
                <mxCell id="GtfeOrSFovPK5ZYkdQ4u-105" value="1" style="shape=partialRectangle;html=1;whiteSpace=wrap;connectable=0;strokeColor=inherit;overflow=hidden;fillColor=none;top=0;left=0;bottom=0;right=0;pointerEvents=1;fontFamily=Times New Roman;fontSize=20;strokeWidth=0.5;shadow=0;" parent="GtfeOrSFovPK5ZYkdQ4u-101" vertex="1">
                    <mxGeometry x="180" width="60" height="40" as="geometry">
                        <mxRectangle width="60" height="40" as="alternateBounds"/>
                    </mxGeometry>
                </mxCell>
                <mxCell id="GtfeOrSFovPK5ZYkdQ4u-106" value="1" style="shape=partialRectangle;html=1;whiteSpace=wrap;connectable=0;strokeColor=inherit;overflow=hidden;fillColor=none;top=0;left=0;bottom=0;right=0;pointerEvents=1;fontFamily=Times New Roman;fontSize=20;strokeWidth=0.5;shadow=0;" parent="GtfeOrSFovPK5ZYkdQ4u-101" vertex="1">
                    <mxGeometry x="240" width="60" height="40" as="geometry">
                        <mxRectangle width="60" height="40" as="alternateBounds"/>
                    </mxGeometry>
                </mxCell>
                <mxCell id="GtfeOrSFovPK5ZYkdQ4u-107" value="2" style="shape=partialRectangle;html=1;whiteSpace=wrap;connectable=0;strokeColor=inherit;overflow=hidden;fillColor=none;top=0;left=0;bottom=0;right=0;pointerEvents=1;fontFamily=Times New Roman;fontSize=20;strokeWidth=0.5;shadow=0;" parent="GtfeOrSFovPK5ZYkdQ4u-101" vertex="1">
                    <mxGeometry x="300" width="60" height="40" as="geometry">
                        <mxRectangle width="60" height="40" as="alternateBounds"/>
                    </mxGeometry>
                </mxCell>
                <mxCell id="GtfeOrSFovPK5ZYkdQ4u-108" value="" style="endArrow=none;html=1;rounded=0;entryX=0.168;entryY=0.006;entryDx=0;entryDy=0;entryPerimeter=0;strokeWidth=0.5;" parent="GtfeOrSFovPK5ZYkdQ4u-93" target="GtfeOrSFovPK5ZYkdQ4u-101" edge="1">
                    <mxGeometry width="50" height="50" relative="1" as="geometry">
                        <mxPoint as="sourcePoint"/>
                        <mxPoint x="170" y="30" as="targetPoint"/>
                    </mxGeometry>
                </mxCell>
                <mxCell id="GtfeOrSFovPK5ZYkdQ4u-109" value="&lt;font style=&quot;font-size: 20px;&quot; face=&quot;Times New Roman&quot;&gt;(c) &lt;/font&gt;&lt;font face=&quot;SimSun&quot; style=&quot;font-size: 20px;&quot;&gt;第二步&lt;/font&gt;" style="text;html=1;align=center;verticalAlign=middle;resizable=0;points=[];autosize=1;strokeColor=none;fillColor=none;strokeWidth=0.5;" parent="gOH0j5LnowQiTqJbI5KU-7" vertex="1">
                    <mxGeometry x="180" y="80" width="110" height="40" as="geometry"/>
                </mxCell>
                <mxCell id="GtfeOrSFovPK5ZYkdQ4u-162" value="&lt;font face=&quot;Times New Roman&quot;&gt;&lt;span style=&quot;font-size: 20px;&quot;&gt;S: {A,C}&lt;/span&gt;&lt;/font&gt;" style="text;html=1;align=center;verticalAlign=middle;resizable=0;points=[];autosize=1;strokeColor=none;fillColor=none;strokeWidth=0.5;" parent="gOH0j5LnowQiTqJbI5KU-7" vertex="1">
                    <mxGeometry x="390" y="20" width="100" height="40" as="geometry"/>
                </mxCell>
                <mxCell id="GtfeOrSFovPK5ZYkdQ4u-110" value="" style="shape=table;startSize=0;container=1;collapsible=0;childLayout=tableLayout;fontFamily=Times New Roman;fontSize=20;strokeWidth=0.5;shadow=0;" parent="gOH0j5LnowQiTqJbI5KU-8" vertex="1">
                    <mxGeometry y="510" width="360" height="80" as="geometry"/>
                </mxCell>
                <mxCell id="GtfeOrSFovPK5ZYkdQ4u-111" value="" style="shape=tableRow;horizontal=0;startSize=0;swimlaneHead=0;swimlaneBody=0;strokeColor=inherit;top=0;left=0;bottom=0;right=0;collapsible=0;dropTarget=0;fillColor=none;points=[[0,0.5],[1,0.5]];portConstraint=eastwest;fontFamily=Times New Roman;fontSize=20;strokeWidth=0.5;shadow=0;" parent="GtfeOrSFovPK5ZYkdQ4u-110" vertex="1">
                    <mxGeometry width="360" height="40" as="geometry"/>
                </mxCell>
                <mxCell id="GtfeOrSFovPK5ZYkdQ4u-112" value="" style="shape=partialRectangle;html=1;whiteSpace=wrap;connectable=0;strokeColor=inherit;overflow=hidden;fillColor=none;top=0;left=0;bottom=0;right=0;pointerEvents=1;fontFamily=Times New Roman;fontSize=20;strokeWidth=0.5;shadow=0;horizontal=1;" parent="GtfeOrSFovPK5ZYkdQ4u-111" vertex="1">
                    <mxGeometry width="60" height="40" as="geometry">
                        <mxRectangle width="60" height="40" as="alternateBounds"/>
                    </mxGeometry>
                </mxCell>
                <mxCell id="GtfeOrSFovPK5ZYkdQ4u-113" value="A" style="shape=partialRectangle;html=1;whiteSpace=wrap;connectable=0;strokeColor=inherit;overflow=hidden;fillColor=none;top=0;left=0;bottom=0;right=0;pointerEvents=1;fontFamily=Times New Roman;fontSize=20;strokeWidth=0.5;shadow=0;" parent="GtfeOrSFovPK5ZYkdQ4u-111" vertex="1">
                    <mxGeometry x="60" width="60" height="40" as="geometry">
                        <mxRectangle width="60" height="40" as="alternateBounds"/>
                    </mxGeometry>
                </mxCell>
                <mxCell id="GtfeOrSFovPK5ZYkdQ4u-114" value="B" style="shape=partialRectangle;html=1;whiteSpace=wrap;connectable=0;strokeColor=inherit;overflow=hidden;fillColor=none;top=0;left=0;bottom=0;right=0;pointerEvents=1;fontFamily=Times New Roman;fontSize=20;strokeWidth=0.5;shadow=0;" parent="GtfeOrSFovPK5ZYkdQ4u-111" vertex="1">
                    <mxGeometry x="120" width="60" height="40" as="geometry">
                        <mxRectangle width="60" height="40" as="alternateBounds"/>
                    </mxGeometry>
                </mxCell>
                <mxCell id="GtfeOrSFovPK5ZYkdQ4u-115" value="C" style="shape=partialRectangle;html=1;whiteSpace=wrap;connectable=0;strokeColor=inherit;overflow=hidden;fillColor=none;top=0;left=0;bottom=0;right=0;pointerEvents=1;fontFamily=Times New Roman;fontSize=20;strokeWidth=0.5;shadow=0;" parent="GtfeOrSFovPK5ZYkdQ4u-111" vertex="1">
                    <mxGeometry x="180" width="60" height="40" as="geometry">
                        <mxRectangle width="60" height="40" as="alternateBounds"/>
                    </mxGeometry>
                </mxCell>
                <mxCell id="GtfeOrSFovPK5ZYkdQ4u-116" value="D" style="shape=partialRectangle;html=1;whiteSpace=wrap;connectable=0;strokeColor=inherit;overflow=hidden;fillColor=none;top=0;left=0;bottom=0;right=0;pointerEvents=1;fontFamily=Times New Roman;fontSize=20;strokeWidth=0.5;shadow=0;" parent="GtfeOrSFovPK5ZYkdQ4u-111" vertex="1">
                    <mxGeometry x="240" width="60" height="40" as="geometry">
                        <mxRectangle width="60" height="40" as="alternateBounds"/>
                    </mxGeometry>
                </mxCell>
                <mxCell id="GtfeOrSFovPK5ZYkdQ4u-117" value="E" style="shape=partialRectangle;html=1;whiteSpace=wrap;connectable=0;strokeColor=inherit;overflow=hidden;fillColor=none;top=0;left=0;bottom=0;right=0;pointerEvents=1;fontFamily=Times New Roman;fontSize=20;strokeWidth=0.5;shadow=0;" parent="GtfeOrSFovPK5ZYkdQ4u-111" vertex="1">
                    <mxGeometry x="300" width="60" height="40" as="geometry">
                        <mxRectangle width="60" height="40" as="alternateBounds"/>
                    </mxGeometry>
                </mxCell>
                <mxCell id="GtfeOrSFovPK5ZYkdQ4u-118" value="" style="shape=tableRow;horizontal=0;startSize=0;swimlaneHead=0;swimlaneBody=0;strokeColor=inherit;top=0;left=0;bottom=0;right=0;collapsible=0;dropTarget=0;fillColor=none;points=[[0,0.5],[1,0.5]];portConstraint=eastwest;fontFamily=Times New Roman;fontSize=20;strokeWidth=0.5;shadow=0;" parent="GtfeOrSFovPK5ZYkdQ4u-110" vertex="1">
                    <mxGeometry y="40" width="360" height="40" as="geometry"/>
                </mxCell>
                <mxCell id="GtfeOrSFovPK5ZYkdQ4u-119" value="dist" style="shape=partialRectangle;html=1;whiteSpace=wrap;connectable=0;strokeColor=inherit;overflow=hidden;fillColor=none;top=0;left=0;bottom=0;right=0;pointerEvents=1;fontFamily=Times New Roman;fontSize=20;strokeWidth=0.5;shadow=0;" parent="GtfeOrSFovPK5ZYkdQ4u-118" vertex="1">
                    <mxGeometry width="60" height="40" as="geometry">
                        <mxRectangle width="60" height="40" as="alternateBounds"/>
                    </mxGeometry>
                </mxCell>
                <mxCell id="GtfeOrSFovPK5ZYkdQ4u-120" value="0" style="shape=partialRectangle;html=1;whiteSpace=wrap;connectable=0;strokeColor=inherit;overflow=hidden;fillColor=none;top=0;left=0;bottom=0;right=0;pointerEvents=1;fontFamily=Times New Roman;fontSize=20;strokeWidth=0.5;shadow=0;" parent="GtfeOrSFovPK5ZYkdQ4u-118" vertex="1">
                    <mxGeometry x="60" width="60" height="40" as="geometry">
                        <mxRectangle width="60" height="40" as="alternateBounds"/>
                    </mxGeometry>
                </mxCell>
                <mxCell id="GtfeOrSFovPK5ZYkdQ4u-121" value="2" style="shape=partialRectangle;html=1;whiteSpace=wrap;connectable=0;strokeColor=inherit;overflow=hidden;fillColor=none;top=0;left=0;bottom=0;right=0;pointerEvents=1;fontFamily=Times New Roman;fontSize=20;strokeWidth=0.5;shadow=0;" parent="GtfeOrSFovPK5ZYkdQ4u-118" vertex="1">
                    <mxGeometry x="120" width="60" height="40" as="geometry">
                        <mxRectangle width="60" height="40" as="alternateBounds"/>
                    </mxGeometry>
                </mxCell>
                <mxCell id="GtfeOrSFovPK5ZYkdQ4u-122" value="1" style="shape=partialRectangle;html=1;whiteSpace=wrap;connectable=0;strokeColor=inherit;overflow=hidden;fillColor=none;top=0;left=0;bottom=0;right=0;pointerEvents=1;fontFamily=Times New Roman;fontSize=20;strokeWidth=0.5;shadow=0;" parent="GtfeOrSFovPK5ZYkdQ4u-118" vertex="1">
                    <mxGeometry x="180" width="60" height="40" as="geometry">
                        <mxRectangle width="60" height="40" as="alternateBounds"/>
                    </mxGeometry>
                </mxCell>
                <mxCell id="GtfeOrSFovPK5ZYkdQ4u-123" value="1" style="shape=partialRectangle;html=1;whiteSpace=wrap;connectable=0;strokeColor=inherit;overflow=hidden;fillColor=none;top=0;left=0;bottom=0;right=0;pointerEvents=1;fontFamily=Times New Roman;fontSize=20;strokeWidth=0.5;shadow=0;" parent="GtfeOrSFovPK5ZYkdQ4u-118" vertex="1">
                    <mxGeometry x="240" width="60" height="40" as="geometry">
                        <mxRectangle width="60" height="40" as="alternateBounds"/>
                    </mxGeometry>
                </mxCell>
                <mxCell id="GtfeOrSFovPK5ZYkdQ4u-124" value="2" style="shape=partialRectangle;html=1;whiteSpace=wrap;connectable=0;strokeColor=inherit;overflow=hidden;fillColor=none;top=0;left=0;bottom=0;right=0;pointerEvents=1;fontFamily=Times New Roman;fontSize=20;strokeWidth=0.5;shadow=0;" parent="GtfeOrSFovPK5ZYkdQ4u-118" vertex="1">
                    <mxGeometry x="300" width="60" height="40" as="geometry">
                        <mxRectangle width="60" height="40" as="alternateBounds"/>
                    </mxGeometry>
                </mxCell>
                <mxCell id="GtfeOrSFovPK5ZYkdQ4u-125" value="" style="endArrow=none;html=1;rounded=0;entryX=0.168;entryY=0.006;entryDx=0;entryDy=0;entryPerimeter=0;strokeWidth=0.5;" parent="GtfeOrSFovPK5ZYkdQ4u-110" target="GtfeOrSFovPK5ZYkdQ4u-118" edge="1">
                    <mxGeometry width="50" height="50" relative="1" as="geometry">
                        <mxPoint as="sourcePoint"/>
                        <mxPoint x="170" y="30" as="targetPoint"/>
                    </mxGeometry>
                </mxCell>
                <mxCell id="GtfeOrSFovPK5ZYkdQ4u-126" value="&lt;font style=&quot;font-size: 20px;&quot; face=&quot;Times New Roman&quot;&gt;(d) &lt;/font&gt;&lt;font face=&quot;SimSun&quot; style=&quot;font-size: 20px;&quot;&gt;第三步&lt;/font&gt;" style="text;html=1;align=center;verticalAlign=middle;resizable=0;points=[];autosize=1;strokeColor=none;fillColor=none;strokeWidth=0.5;" parent="gOH0j5LnowQiTqJbI5KU-8" vertex="1">
                    <mxGeometry x="180" y="590" width="110" height="40" as="geometry"/>
                </mxCell>
                <mxCell id="GtfeOrSFovPK5ZYkdQ4u-163" value="&lt;font face=&quot;Times New Roman&quot;&gt;&lt;span style=&quot;font-size: 20px;&quot;&gt;S: {A,C,D}&lt;/span&gt;&lt;/font&gt;" style="text;html=1;align=center;verticalAlign=middle;resizable=0;points=[];autosize=1;strokeColor=none;fillColor=none;strokeWidth=0.5;" parent="gOH0j5LnowQiTqJbI5KU-8" vertex="1">
                    <mxGeometry x="390" y="530" width="120" height="40" as="geometry"/>
                </mxCell>
                <mxCell id="GtfeOrSFovPK5ZYkdQ4u-127" value="" style="shape=table;startSize=0;container=1;collapsible=0;childLayout=tableLayout;fontFamily=Times New Roman;fontSize=20;strokeWidth=0.5;shadow=0;" parent="gOH0j5LnowQiTqJbI5KU-8" vertex="1">
                    <mxGeometry y="640" width="360" height="80" as="geometry"/>
                </mxCell>
                <mxCell id="GtfeOrSFovPK5ZYkdQ4u-128" value="" style="shape=tableRow;horizontal=0;startSize=0;swimlaneHead=0;swimlaneBody=0;strokeColor=inherit;top=0;left=0;bottom=0;right=0;collapsible=0;dropTarget=0;fillColor=none;points=[[0,0.5],[1,0.5]];portConstraint=eastwest;fontFamily=Times New Roman;fontSize=20;strokeWidth=0.5;shadow=0;" parent="GtfeOrSFovPK5ZYkdQ4u-127" vertex="1">
                    <mxGeometry width="360" height="40" as="geometry"/>
                </mxCell>
                <mxCell id="GtfeOrSFovPK5ZYkdQ4u-129" value="" style="shape=partialRectangle;html=1;whiteSpace=wrap;connectable=0;strokeColor=inherit;overflow=hidden;fillColor=none;top=0;left=0;bottom=0;right=0;pointerEvents=1;fontFamily=Times New Roman;fontSize=20;strokeWidth=0.5;shadow=0;horizontal=1;" parent="GtfeOrSFovPK5ZYkdQ4u-128" vertex="1">
                    <mxGeometry width="60" height="40" as="geometry">
                        <mxRectangle width="60" height="40" as="alternateBounds"/>
                    </mxGeometry>
                </mxCell>
                <mxCell id="GtfeOrSFovPK5ZYkdQ4u-130" value="A" style="shape=partialRectangle;html=1;whiteSpace=wrap;connectable=0;strokeColor=inherit;overflow=hidden;fillColor=none;top=0;left=0;bottom=0;right=0;pointerEvents=1;fontFamily=Times New Roman;fontSize=20;strokeWidth=0.5;shadow=0;" parent="GtfeOrSFovPK5ZYkdQ4u-128" vertex="1">
                    <mxGeometry x="60" width="60" height="40" as="geometry">
                        <mxRectangle width="60" height="40" as="alternateBounds"/>
                    </mxGeometry>
                </mxCell>
                <mxCell id="GtfeOrSFovPK5ZYkdQ4u-131" value="B" style="shape=partialRectangle;html=1;whiteSpace=wrap;connectable=0;strokeColor=inherit;overflow=hidden;fillColor=none;top=0;left=0;bottom=0;right=0;pointerEvents=1;fontFamily=Times New Roman;fontSize=20;strokeWidth=0.5;shadow=0;" parent="GtfeOrSFovPK5ZYkdQ4u-128" vertex="1">
                    <mxGeometry x="120" width="60" height="40" as="geometry">
                        <mxRectangle width="60" height="40" as="alternateBounds"/>
                    </mxGeometry>
                </mxCell>
                <mxCell id="GtfeOrSFovPK5ZYkdQ4u-132" value="C" style="shape=partialRectangle;html=1;whiteSpace=wrap;connectable=0;strokeColor=inherit;overflow=hidden;fillColor=none;top=0;left=0;bottom=0;right=0;pointerEvents=1;fontFamily=Times New Roman;fontSize=20;strokeWidth=0.5;shadow=0;" parent="GtfeOrSFovPK5ZYkdQ4u-128" vertex="1">
                    <mxGeometry x="180" width="60" height="40" as="geometry">
                        <mxRectangle width="60" height="40" as="alternateBounds"/>
                    </mxGeometry>
                </mxCell>
                <mxCell id="GtfeOrSFovPK5ZYkdQ4u-133" value="D" style="shape=partialRectangle;html=1;whiteSpace=wrap;connectable=0;strokeColor=inherit;overflow=hidden;fillColor=none;top=0;left=0;bottom=0;right=0;pointerEvents=1;fontFamily=Times New Roman;fontSize=20;strokeWidth=0.5;shadow=0;" parent="GtfeOrSFovPK5ZYkdQ4u-128" vertex="1">
                    <mxGeometry x="240" width="60" height="40" as="geometry">
                        <mxRectangle width="60" height="40" as="alternateBounds"/>
                    </mxGeometry>
                </mxCell>
                <mxCell id="GtfeOrSFovPK5ZYkdQ4u-134" value="E" style="shape=partialRectangle;html=1;whiteSpace=wrap;connectable=0;strokeColor=inherit;overflow=hidden;fillColor=none;top=0;left=0;bottom=0;right=0;pointerEvents=1;fontFamily=Times New Roman;fontSize=20;strokeWidth=0.5;shadow=0;" parent="GtfeOrSFovPK5ZYkdQ4u-128" vertex="1">
                    <mxGeometry x="300" width="60" height="40" as="geometry">
                        <mxRectangle width="60" height="40" as="alternateBounds"/>
                    </mxGeometry>
                </mxCell>
                <mxCell id="GtfeOrSFovPK5ZYkdQ4u-135" value="" style="shape=tableRow;horizontal=0;startSize=0;swimlaneHead=0;swimlaneBody=0;strokeColor=inherit;top=0;left=0;bottom=0;right=0;collapsible=0;dropTarget=0;fillColor=none;points=[[0,0.5],[1,0.5]];portConstraint=eastwest;fontFamily=Times New Roman;fontSize=20;strokeWidth=0.5;shadow=0;" parent="GtfeOrSFovPK5ZYkdQ4u-127" vertex="1">
                    <mxGeometry y="40" width="360" height="40" as="geometry"/>
                </mxCell>
                <mxCell id="GtfeOrSFovPK5ZYkdQ4u-136" value="dist" style="shape=partialRectangle;html=1;whiteSpace=wrap;connectable=0;strokeColor=inherit;overflow=hidden;fillColor=none;top=0;left=0;bottom=0;right=0;pointerEvents=1;fontFamily=Times New Roman;fontSize=20;strokeWidth=0.5;shadow=0;" parent="GtfeOrSFovPK5ZYkdQ4u-135" vertex="1">
                    <mxGeometry width="60" height="40" as="geometry">
                        <mxRectangle width="60" height="40" as="alternateBounds"/>
                    </mxGeometry>
                </mxCell>
                <mxCell id="GtfeOrSFovPK5ZYkdQ4u-137" value="0" style="shape=partialRectangle;html=1;whiteSpace=wrap;connectable=0;strokeColor=inherit;overflow=hidden;fillColor=none;top=0;left=0;bottom=0;right=0;pointerEvents=1;fontFamily=Times New Roman;fontSize=20;strokeWidth=0.5;shadow=0;" parent="GtfeOrSFovPK5ZYkdQ4u-135" vertex="1">
                    <mxGeometry x="60" width="60" height="40" as="geometry">
                        <mxRectangle width="60" height="40" as="alternateBounds"/>
                    </mxGeometry>
                </mxCell>
                <mxCell id="GtfeOrSFovPK5ZYkdQ4u-138" value="2" style="shape=partialRectangle;html=1;whiteSpace=wrap;connectable=0;strokeColor=inherit;overflow=hidden;fillColor=none;top=0;left=0;bottom=0;right=0;pointerEvents=1;fontFamily=Times New Roman;fontSize=20;strokeWidth=0.5;shadow=0;" parent="GtfeOrSFovPK5ZYkdQ4u-135" vertex="1">
                    <mxGeometry x="120" width="60" height="40" as="geometry">
                        <mxRectangle width="60" height="40" as="alternateBounds"/>
                    </mxGeometry>
                </mxCell>
                <mxCell id="GtfeOrSFovPK5ZYkdQ4u-139" value="1" style="shape=partialRectangle;html=1;whiteSpace=wrap;connectable=0;strokeColor=inherit;overflow=hidden;fillColor=none;top=0;left=0;bottom=0;right=0;pointerEvents=1;fontFamily=Times New Roman;fontSize=20;strokeWidth=0.5;shadow=0;" parent="GtfeOrSFovPK5ZYkdQ4u-135" vertex="1">
                    <mxGeometry x="180" width="60" height="40" as="geometry">
                        <mxRectangle width="60" height="40" as="alternateBounds"/>
                    </mxGeometry>
                </mxCell>
                <mxCell id="GtfeOrSFovPK5ZYkdQ4u-140" value="1" style="shape=partialRectangle;html=1;whiteSpace=wrap;connectable=0;strokeColor=inherit;overflow=hidden;fillColor=none;top=0;left=0;bottom=0;right=0;pointerEvents=1;fontFamily=Times New Roman;fontSize=20;strokeWidth=0.5;shadow=0;" parent="GtfeOrSFovPK5ZYkdQ4u-135" vertex="1">
                    <mxGeometry x="240" width="60" height="40" as="geometry">
                        <mxRectangle width="60" height="40" as="alternateBounds"/>
                    </mxGeometry>
                </mxCell>
                <mxCell id="GtfeOrSFovPK5ZYkdQ4u-141" value="2" style="shape=partialRectangle;html=1;whiteSpace=wrap;connectable=0;strokeColor=inherit;overflow=hidden;fillColor=none;top=0;left=0;bottom=0;right=0;pointerEvents=1;fontFamily=Times New Roman;fontSize=20;strokeWidth=0.5;shadow=0;" parent="GtfeOrSFovPK5ZYkdQ4u-135" vertex="1">
                    <mxGeometry x="300" width="60" height="40" as="geometry">
                        <mxRectangle width="60" height="40" as="alternateBounds"/>
                    </mxGeometry>
                </mxCell>
                <mxCell id="GtfeOrSFovPK5ZYkdQ4u-142" value="" style="endArrow=none;html=1;rounded=0;entryX=0.168;entryY=0.006;entryDx=0;entryDy=0;entryPerimeter=0;strokeWidth=0.5;" parent="GtfeOrSFovPK5ZYkdQ4u-127" target="GtfeOrSFovPK5ZYkdQ4u-135" edge="1">
                    <mxGeometry width="50" height="50" relative="1" as="geometry">
                        <mxPoint as="sourcePoint"/>
                        <mxPoint x="170" y="30" as="targetPoint"/>
                    </mxGeometry>
                </mxCell>
                <mxCell id="GtfeOrSFovPK5ZYkdQ4u-143" value="&lt;font style=&quot;font-size: 20px;&quot; face=&quot;Times New Roman&quot;&gt;(e) &lt;/font&gt;&lt;font face=&quot;SimSun&quot; style=&quot;font-size: 20px;&quot;&gt;第四步&lt;/font&gt;" style="text;html=1;align=center;verticalAlign=middle;resizable=0;points=[];autosize=1;strokeColor=none;fillColor=none;strokeWidth=0.5;" parent="gOH0j5LnowQiTqJbI5KU-8" vertex="1">
                    <mxGeometry x="180" y="720" width="110" height="40" as="geometry"/>
                </mxCell>
                <mxCell id="GtfeOrSFovPK5ZYkdQ4u-165" value="&lt;font face=&quot;Times New Roman&quot;&gt;&lt;span style=&quot;font-size: 20px;&quot;&gt;S: {A,B,C,D}&lt;/span&gt;&lt;/font&gt;" style="text;html=1;align=center;verticalAlign=middle;resizable=0;points=[];autosize=1;strokeColor=none;fillColor=none;strokeWidth=0.5;" parent="gOH0j5LnowQiTqJbI5KU-8" vertex="1">
                    <mxGeometry x="390" y="660" width="130" height="40" as="geometry"/>
                </mxCell>
                <mxCell id="GtfeOrSFovPK5ZYkdQ4u-144" value="" style="shape=table;startSize=0;container=1;collapsible=0;childLayout=tableLayout;fontFamily=Times New Roman;fontSize=20;strokeWidth=0.5;shadow=0;" parent="gOH0j5LnowQiTqJbI5KU-8" vertex="1">
                    <mxGeometry y="770" width="360" height="80" as="geometry"/>
                </mxCell>
                <mxCell id="GtfeOrSFovPK5ZYkdQ4u-145" value="" style="shape=tableRow;horizontal=0;startSize=0;swimlaneHead=0;swimlaneBody=0;strokeColor=inherit;top=0;left=0;bottom=0;right=0;collapsible=0;dropTarget=0;fillColor=none;points=[[0,0.5],[1,0.5]];portConstraint=eastwest;fontFamily=Times New Roman;fontSize=20;strokeWidth=0.5;shadow=0;" parent="GtfeOrSFovPK5ZYkdQ4u-144" vertex="1">
                    <mxGeometry width="360" height="40" as="geometry"/>
                </mxCell>
                <mxCell id="GtfeOrSFovPK5ZYkdQ4u-146" value="" style="shape=partialRectangle;html=1;whiteSpace=wrap;connectable=0;strokeColor=inherit;overflow=hidden;fillColor=none;top=0;left=0;bottom=0;right=0;pointerEvents=1;fontFamily=Times New Roman;fontSize=20;strokeWidth=0.5;shadow=0;horizontal=1;" parent="GtfeOrSFovPK5ZYkdQ4u-145" vertex="1">
                    <mxGeometry width="60" height="40" as="geometry">
                        <mxRectangle width="60" height="40" as="alternateBounds"/>
                    </mxGeometry>
                </mxCell>
                <mxCell id="GtfeOrSFovPK5ZYkdQ4u-147" value="A" style="shape=partialRectangle;html=1;whiteSpace=wrap;connectable=0;strokeColor=inherit;overflow=hidden;fillColor=none;top=0;left=0;bottom=0;right=0;pointerEvents=1;fontFamily=Times New Roman;fontSize=20;strokeWidth=0.5;shadow=0;" parent="GtfeOrSFovPK5ZYkdQ4u-145" vertex="1">
                    <mxGeometry x="60" width="70" height="40" as="geometry">
                        <mxRectangle width="70" height="40" as="alternateBounds"/>
                    </mxGeometry>
                </mxCell>
                <mxCell id="GtfeOrSFovPK5ZYkdQ4u-148" value="B" style="shape=partialRectangle;html=1;whiteSpace=wrap;connectable=0;strokeColor=inherit;overflow=hidden;fillColor=none;top=0;left=0;bottom=0;right=0;pointerEvents=1;fontFamily=Times New Roman;fontSize=20;strokeWidth=0.5;shadow=0;" parent="GtfeOrSFovPK5ZYkdQ4u-145" vertex="1">
                    <mxGeometry x="130" width="50" height="40" as="geometry">
                        <mxRectangle width="50" height="40" as="alternateBounds"/>
                    </mxGeometry>
                </mxCell>
                <mxCell id="GtfeOrSFovPK5ZYkdQ4u-149" value="C" style="shape=partialRectangle;html=1;whiteSpace=wrap;connectable=0;strokeColor=inherit;overflow=hidden;fillColor=none;top=0;left=0;bottom=0;right=0;pointerEvents=1;fontFamily=Times New Roman;fontSize=20;strokeWidth=0.5;shadow=0;" parent="GtfeOrSFovPK5ZYkdQ4u-145" vertex="1">
                    <mxGeometry x="180" width="60" height="40" as="geometry">
                        <mxRectangle width="60" height="40" as="alternateBounds"/>
                    </mxGeometry>
                </mxCell>
                <mxCell id="GtfeOrSFovPK5ZYkdQ4u-150" value="D" style="shape=partialRectangle;html=1;whiteSpace=wrap;connectable=0;strokeColor=inherit;overflow=hidden;fillColor=none;top=0;left=0;bottom=0;right=0;pointerEvents=1;fontFamily=Times New Roman;fontSize=20;strokeWidth=0.5;shadow=0;" parent="GtfeOrSFovPK5ZYkdQ4u-145" vertex="1">
                    <mxGeometry x="240" width="60" height="40" as="geometry">
                        <mxRectangle width="60" height="40" as="alternateBounds"/>
                    </mxGeometry>
                </mxCell>
                <mxCell id="GtfeOrSFovPK5ZYkdQ4u-151" value="E" style="shape=partialRectangle;html=1;whiteSpace=wrap;connectable=0;strokeColor=inherit;overflow=hidden;fillColor=none;top=0;left=0;bottom=0;right=0;pointerEvents=1;fontFamily=Times New Roman;fontSize=20;strokeWidth=0.5;shadow=0;" parent="GtfeOrSFovPK5ZYkdQ4u-145" vertex="1">
                    <mxGeometry x="300" width="60" height="40" as="geometry">
                        <mxRectangle width="60" height="40" as="alternateBounds"/>
                    </mxGeometry>
                </mxCell>
                <mxCell id="GtfeOrSFovPK5ZYkdQ4u-152" value="" style="shape=tableRow;horizontal=0;startSize=0;swimlaneHead=0;swimlaneBody=0;strokeColor=inherit;top=0;left=0;bottom=0;right=0;collapsible=0;dropTarget=0;fillColor=none;points=[[0,0.5],[1,0.5]];portConstraint=eastwest;fontFamily=Times New Roman;fontSize=20;strokeWidth=0.5;shadow=0;" parent="GtfeOrSFovPK5ZYkdQ4u-144" vertex="1">
                    <mxGeometry y="40" width="360" height="40" as="geometry"/>
                </mxCell>
                <mxCell id="GtfeOrSFovPK5ZYkdQ4u-153" value="dist" style="shape=partialRectangle;html=1;whiteSpace=wrap;connectable=0;strokeColor=inherit;overflow=hidden;fillColor=none;top=0;left=0;bottom=0;right=0;pointerEvents=1;fontFamily=Times New Roman;fontSize=20;strokeWidth=0.5;shadow=0;" parent="GtfeOrSFovPK5ZYkdQ4u-152" vertex="1">
                    <mxGeometry width="60" height="40" as="geometry">
                        <mxRectangle width="60" height="40" as="alternateBounds"/>
                    </mxGeometry>
                </mxCell>
                <mxCell id="GtfeOrSFovPK5ZYkdQ4u-154" value="0" style="shape=partialRectangle;html=1;whiteSpace=wrap;connectable=0;strokeColor=inherit;overflow=hidden;fillColor=none;top=0;left=0;bottom=0;right=0;pointerEvents=1;fontFamily=Times New Roman;fontSize=20;strokeWidth=0.5;shadow=0;" parent="GtfeOrSFovPK5ZYkdQ4u-152" vertex="1">
                    <mxGeometry x="60" width="70" height="40" as="geometry">
                        <mxRectangle width="70" height="40" as="alternateBounds"/>
                    </mxGeometry>
                </mxCell>
                <mxCell id="GtfeOrSFovPK5ZYkdQ4u-155" value="2" style="shape=partialRectangle;html=1;whiteSpace=wrap;connectable=0;strokeColor=inherit;overflow=hidden;fillColor=none;top=0;left=0;bottom=0;right=0;pointerEvents=1;fontFamily=Times New Roman;fontSize=20;strokeWidth=0.5;shadow=0;" parent="GtfeOrSFovPK5ZYkdQ4u-152" vertex="1">
                    <mxGeometry x="130" width="50" height="40" as="geometry">
                        <mxRectangle width="50" height="40" as="alternateBounds"/>
                    </mxGeometry>
                </mxCell>
                <mxCell id="GtfeOrSFovPK5ZYkdQ4u-156" value="1" style="shape=partialRectangle;html=1;whiteSpace=wrap;connectable=0;strokeColor=inherit;overflow=hidden;fillColor=none;top=0;left=0;bottom=0;right=0;pointerEvents=1;fontFamily=Times New Roman;fontSize=20;strokeWidth=0.5;shadow=0;" parent="GtfeOrSFovPK5ZYkdQ4u-152" vertex="1">
                    <mxGeometry x="180" width="60" height="40" as="geometry">
                        <mxRectangle width="60" height="40" as="alternateBounds"/>
                    </mxGeometry>
                </mxCell>
                <mxCell id="GtfeOrSFovPK5ZYkdQ4u-157" value="1" style="shape=partialRectangle;html=1;whiteSpace=wrap;connectable=0;strokeColor=inherit;overflow=hidden;fillColor=none;top=0;left=0;bottom=0;right=0;pointerEvents=1;fontFamily=Times New Roman;fontSize=20;strokeWidth=0.5;shadow=0;" parent="GtfeOrSFovPK5ZYkdQ4u-152" vertex="1">
                    <mxGeometry x="240" width="60" height="40" as="geometry">
                        <mxRectangle width="60" height="40" as="alternateBounds"/>
                    </mxGeometry>
                </mxCell>
                <mxCell id="GtfeOrSFovPK5ZYkdQ4u-158" value="2" style="shape=partialRectangle;html=1;whiteSpace=wrap;connectable=0;strokeColor=inherit;overflow=hidden;fillColor=none;top=0;left=0;bottom=0;right=0;pointerEvents=1;fontFamily=Times New Roman;fontSize=20;strokeWidth=0.5;shadow=0;" parent="GtfeOrSFovPK5ZYkdQ4u-152" vertex="1">
                    <mxGeometry x="300" width="60" height="40" as="geometry">
                        <mxRectangle width="60" height="40" as="alternateBounds"/>
                    </mxGeometry>
                </mxCell>
                <mxCell id="GtfeOrSFovPK5ZYkdQ4u-159" value="" style="endArrow=none;html=1;rounded=0;entryX=0.168;entryY=0.006;entryDx=0;entryDy=0;entryPerimeter=0;strokeWidth=0.5;" parent="GtfeOrSFovPK5ZYkdQ4u-144" target="GtfeOrSFovPK5ZYkdQ4u-152" edge="1">
                    <mxGeometry width="50" height="50" relative="1" as="geometry">
                        <mxPoint as="sourcePoint"/>
                        <mxPoint x="170" y="30" as="targetPoint"/>
                    </mxGeometry>
                </mxCell>
            </root>
        </mxGraphModel>
    </diagram>
</mxfile>